<?xml version="1.0" standalone="no"?>
<!DOCTYPE svg PUBLIC "-//W3C//DTD SVG 20010904//EN"
 "http://www.w3.org/TR/2001/REC-SVG-20010904/DTD/svg10.dtd">
<svg version="1.0" xmlns="http://www.w3.org/2000/svg"
 width="600.000000pt" height="600.000000pt" viewBox="0 0 600.000000 600.000000"
 preserveAspectRatio="xMidYMid meet">
<metadata>
Created by potrace 1.11, written by Peter Selinger 2001-2013
</metadata>
<g transform="translate(0.000000,600.000000) scale(0.100000,-0.100000)"
fill="#000000" stroke="none">
<path d="M4035 4501 c-83 -21 -137 -75 -156 -157 -35 -152 101 -277 263 -243
93 20 158 102 158 198 0 96 -54 170 -144 196 -53 16 -74 17 -121 6z"/>
<path d="M1830 3750 c-85 -15 -266 -64 -278 -75 -2 -2 57 -176 62 -182 0 -1
47 11 102 27 264 74 475 61 583 -36 66 -60 83 -105 89 -240 l4 -111 -208 -6
c-295 -10 -433 -41 -564 -129 -149 -99 -217 -283 -177 -475 40 -184 150 -302
327 -348 77 -21 229 -23 315 -6 93 19 216 83 280 145 l55 55 24 -47 c43 -83
130 -146 218 -158 l43 -6 29 83 c20 55 26 84 18 87 -32 10 -79 51 -94 82 -16
32 -18 74 -18 440 0 223 -5 445 -10 493 -26 226 -168 370 -404 412 -116 20
-265 18 -396 -5z m560 -992 l0 -203 -40 -47 c-55 -64 -149 -124 -232 -149 -57
-18 -86 -21 -152 -16 -89 6 -137 22 -185 63 -110 92 -112 331 -5 445 37 38
121 78 200 93 41 9 139 15 242 15 l172 1 0 -202z"/>
<path d="M3400 3620 l0 -120 311 0 310 0 -4 -562 c-3 -372 -8 -580 -16 -613
-22 -99 -77 -193 -154 -269 -107 -105 -238 -169 -466 -227 -62 -15 -116 -30
-118 -33 -4 -3 16 -108 42 -222 l5 -21 87 18 c531 111 816 321 915 674 22 79
23 90 26 788 l3 707 -471 0 -470 0 0 -120z"/>
</g>
</svg>
